<svg width="22" height="30" viewBox="0 0 22 30" fill="none" xmlns="http://www.w3.org/2000/svg">
<path d="M14.1702 15.1578L14.1701 15.1576L12.9878 11.607L14.1702 15.1578ZM14.1702 15.1578C14.455 16.012 14.9349 16.7882 15.5718 17.4247C16.2086 18.0612 16.985 18.5406 17.8393 18.825C17.8394 18.825 17.8394 18.825 17.8395 18.825L21.3882 20.0073C21.3882 20.0073 21.3882 20.0074 21.3882 20.0074C21.3882 20.0074 21.3882 20.0074 21.3883 20.0074C21.5373 20.0571 21.5372 20.2665 21.3882 20.3162L17.8375 21.4985L17.8374 21.4986M14.1702 15.1578L17.8374 21.4986M17.8374 21.4986C16.9831 21.7834 16.207 22.2633 15.5705 22.9002C14.934 23.537 14.4545 24.3134 14.1702 25.1677C14.1702 25.1677 14.1701 25.1678 14.1701 25.1678L12.9878 28.7166L12.9871 28.7188M17.8374 21.4986L12.9871 28.7188M12.9871 28.7188C12.9765 28.7511 12.9559 28.7793 12.9283 28.7993C12.9007 28.8193 12.8675 28.8301 12.8334 28.8301C12.7993 28.8301 12.7661 28.8193 12.7385 28.7993C12.7109 28.7793 12.6903 28.7511 12.6797 28.7188L12.679 28.7167M12.9871 28.7188L12.679 28.7167M12.679 28.7167L11.4967 25.1659L11.4966 25.1658M12.679 28.7167L11.4966 25.1658M11.4966 25.1658C11.212 24.3118 10.7324 23.5358 10.0959 22.8993C9.45938 22.2627 8.68338 21.7832 7.82937 21.4986L7.82925 21.4985M11.4966 25.1658L7.82925 21.4985M7.82925 21.4985L4.27847 20.3161L4.27641 20.3155M7.82925 21.4985L4.27641 20.3155M4.27641 20.3155C4.24404 20.3048 4.21584 20.2843 4.19585 20.2567C4.17586 20.2291 4.16509 20.1959 4.16509 20.1618C4.16509 20.1277 4.17586 20.0945 4.19585 20.0669C4.21584 20.0393 4.24404 20.0187 4.27642 20.0081L4.27847 20.0074M4.27641 20.3155L4.27847 20.0074M4.27847 20.0074L7.82925 18.825L7.82937 18.825M4.27847 20.0074L7.82937 18.825M7.82937 18.825C8.68338 18.5404 9.45938 18.0608 10.0959 17.4243C10.7324 16.7877 11.212 16.0117 11.4966 15.1577L11.4967 15.1576M7.82937 18.825L11.4967 15.1576M11.4967 15.1576L12.679 11.607L11.4967 15.1576ZM6.5879 4.2318L5.87848 2.1017C5.85219 2.02231 5.80156 1.95323 5.73376 1.90427C5.66597 1.8553 5.58448 1.82895 5.50085 1.82895C5.41723 1.82895 5.33573 1.8553 5.26794 1.90427C5.20015 1.95323 5.14951 2.02231 5.12323 2.1017L4.4138 4.2318C4.25777 4.70012 3.99481 5.12567 3.64577 5.47472L6.5879 4.2318ZM6.5879 4.2318C6.90504 5.18137 7.64929 5.92562 8.59885 6.24276M6.5879 4.2318L8.59885 6.24276M8.59885 6.24276L10.729 6.95218M8.59885 6.24276L10.729 6.95218M10.729 6.95218C10.8083 6.97847 10.8774 7.0291 10.9264 7.09689C10.9754 7.16468 11.0017 7.24618 11.0017 7.32981C11.0017 7.41343 10.9754 7.49493 10.9264 7.56272C10.8774 7.63051 10.8083 7.68115 10.729 7.70743V6.95218ZM17.0964 4.89995L17.4499 4.5464C17.7378 4.83429 17.9546 5.18533 18.0832 5.57165L18.3328 6.3206L18.5825 5.57165C18.711 5.18533 18.9278 4.83429 19.2157 4.5464C19.5035 4.25858 19.8544 4.0418 20.2406 3.91328C20.2407 3.91325 20.2408 3.91321 20.2409 3.91318L20.9899 3.66353L20.2411 3.41392C20.241 3.41389 20.2409 3.41386 20.2408 3.41383C20.2407 3.41382 20.2407 3.4138 20.2406 3.41378C19.4571 3.1532 18.8431 2.53926 18.5826 1.7557L17.0964 4.89995ZM17.0964 4.89995L17.4499 4.5464C17.1622 4.25862 16.8113 4.04187 16.4252 3.91334L17.0964 4.89995ZM6.11352 4.38979L6.11365 4.39019C6.48058 5.48884 7.34182 6.35008 8.44046 6.71701L8.44086 6.71714L10.2804 7.32981L8.44086 7.94247L8.44081 7.94249C7.89882 8.12307 7.40634 8.42739 7.00239 8.83134C6.59843 9.23529 6.29411 9.72778 6.11354 10.2698L6.11352 10.2698L5.50085 12.1094L4.88819 10.2698L4.88817 10.2698C4.70759 9.72778 4.40327 9.2353 3.99932 8.83134C3.59537 8.42739 3.10288 8.12307 2.5609 7.94249L2.56084 7.94247L0.721257 7.32981L2.56084 6.71714L2.5609 6.71712C3.10288 6.53655 3.59537 6.23223 3.99932 5.82827C4.40327 5.42432 4.70759 4.93183 4.88817 4.38985L4.88819 4.38979L5.50085 2.55021L6.11352 4.38979ZM18.3334 1.00824L18.5824 1.75529L16.4247 3.91318L15.6771 3.66367L16.4264 3.41392C16.4265 3.41389 16.4266 3.41386 16.4267 3.41383C16.4267 3.41382 16.4268 3.4138 16.4268 3.41378C17.2105 3.15316 17.8245 2.53907 18.085 1.75533C18.085 1.75532 18.085 1.7553 18.085 1.75529L18.3334 1.00824ZM18.3347 7.06397L18.3359 7.06566L18.3347 7.06397ZM12.679 11.6068C12.7288 11.4579 12.938 11.4579 12.9878 11.6068H12.679Z" fill="#FFD600" stroke="#282828"/>
</svg>
