<svg width="68" height="68" viewBox="0 0 68 68" fill="none" xmlns="http://www.w3.org/2000/svg">
<rect width="68" height="68" rx="34" fill="white"/>
<path d="M34.0001 50.6786C29.5768 50.6786 25.3346 48.9214 22.2069 45.7937C19.0792 42.666 17.322 38.4238 17.322 34.0005C17.322 29.5773 19.0792 25.3351 22.2069 22.2074C25.3346 19.0797 29.5768 17.3225 34.0001 17.3225C38.4233 17.3225 42.6655 19.0797 45.7932 22.2074C48.9209 25.3351 50.6781 29.5773 50.6781 34.0005C50.6781 38.4238 48.9209 42.666 45.7932 45.7937C42.6655 48.9214 38.4233 50.6786 34.0001 50.6786ZM34.0001 53.0612C39.0552 53.0612 43.9034 51.053 47.4779 47.4784C51.0525 43.9039 53.0607 39.0557 53.0607 34.0005C53.0607 28.9454 51.0525 24.0972 47.4779 20.5227C43.9034 16.9481 39.0552 14.9399 34.0001 14.9399C28.9449 14.9399 24.0967 16.9481 20.5222 20.5227C16.9476 24.0972 14.9395 28.9454 14.9395 34.0005C14.9395 39.0557 16.9476 43.9039 20.5222 47.4784C24.0967 51.053 28.9449 53.0612 34.0001 53.0612Z" fill="black"/>
<path d="M24.4697 33.9989C24.4697 33.683 24.5952 33.3799 24.8186 33.1565C25.0421 32.9331 25.3451 32.8076 25.661 32.8076H42.339C42.655 32.8076 42.958 32.9331 43.1814 33.1565C43.4048 33.3799 43.5303 33.683 43.5303 33.9989C43.5303 34.3149 43.4048 34.6179 43.1814 34.8413C42.958 35.0647 42.655 35.1902 42.339 35.1902H25.661C25.3451 35.1902 25.0421 35.0647 24.8186 34.8413C24.5952 34.6179 24.4697 34.3149 24.4697 33.9989Z" fill="black"/>
</svg>
