<svg width="32" height="33" viewBox="0 0 32 33" fill="none" xmlns="http://www.w3.org/2000/svg">
<path d="M31.191 14.9C31.491 19.25 31.446 23.255 31.056 26.915C30.936 28.325 30.441 29.525 29.571 30.515C28.701 31.475 27.576 32 26.196 32.09C23.556 32.27 22.086 30.5 21.786 26.78C21.786 26.69 21.786 26.57 21.786 26.42C21.756 26.03 21.726 25.73 21.696 25.52C21.666 25.31 21.621 25.01 21.561 24.62C21.531 24.2 21.471 23.885 21.381 23.675C21.321 23.435 21.231 23.165 21.111 22.865C21.021 22.565 20.886 22.37 20.706 22.28C20.556 22.16 20.376 22.07 20.166 22.01C19.956 21.95 19.701 21.98 19.401 22.1C19.101 22.22 18.771 22.43 18.411 22.73C18.201 22.88 17.961 23.195 17.691 23.675C17.421 24.155 17.136 24.59 16.836 24.98C16.566 25.37 16.281 25.595 15.981 25.655C15.531 25.745 15.141 25.55 14.811 25.07C14.511 24.59 14.196 24.035 13.866 23.405C13.566 22.745 13.236 22.34 12.876 22.19C12.126 21.86 11.586 22.13 11.256 23C10.956 23.84 10.701 25.025 10.491 26.555C10.311 28.085 10.056 29.165 9.72602 29.795C9.30602 30.515 8.73602 31.07 8.01602 31.46C7.29602 31.85 6.50102 32.015 5.63102 31.955C5.54102 31.955 5.43602 31.94 5.31602 31.91C5.28602 31.91 5.25602 31.91 5.22602 31.91H5.27102C5.00102 31.88 4.70102 31.805 4.37102 31.685C4.07102 31.565 3.68102 31.325 3.20102 30.965C2.75102 30.575 2.34602 30.095 1.98602 29.525C1.62602 28.955 1.31102 28.145 1.04102 27.095C0.771016 26.045 0.606016 24.83 0.546016 23.45C0.546016 23.09 0.546016 22.58 0.546016 21.92C0.546016 21.26 0.561016 20.03 0.591016 18.23C0.621016 16.43 0.681016 14.765 0.771016 13.235C0.891016 11.675 1.08602 10.04 1.35602 8.33C1.65602 6.62 2.00102 5.3 2.39102 4.37C2.42102 4.31 2.45102 4.235 2.48102 4.145C2.54102 4.055 2.64602 3.89 2.79602 3.65C2.94602 3.41 3.09602 3.185 3.24602 2.975C3.42602 2.735 3.63602 2.48 3.87602 2.21C4.14602 1.91 4.40102 1.67 4.64102 1.49C4.91102 1.28 5.22602 1.115 5.58602 0.995C5.94602 0.845 6.30602 0.77 6.66602 0.77C6.84602 0.739998 7.08602 0.724998 7.38602 0.724998C7.71602 0.694998 8.30102 0.724999 9.14102 0.814999C10.011 0.904998 10.791 1.085 11.481 1.355C12.201 1.625 12.921 2.12 13.641 2.84C14.361 3.53 14.871 4.415 15.171 5.495L16.341 7.925C17.031 6.395 17.376 5.63 17.376 5.63C17.886 4.52 18.531 3.575 19.311 2.795C20.091 1.985 21.006 1.385 22.056 0.995C23.136 0.575 24.291 0.44 25.521 0.589999C27.681 0.799998 29.136 2 29.886 4.19C30.156 4.97 30.366 5.87 30.516 6.89C30.696 7.88 30.801 8.72 30.831 9.41C30.891 10.07 30.951 11.045 31.011 12.335C31.101 13.595 31.161 14.45 31.191 14.9ZM2.34602 13.19C2.49602 13.31 2.66102 13.37 2.84102 13.37C3.05102 13.37 3.21602 13.31 3.33602 13.19C3.45602 13.04 3.51602 12.875 3.51602 12.695C3.51602 12.515 3.45602 12.365 3.33602 12.245C3.21602 12.095 3.05102 12.02 2.84102 12.02C2.66102 12.02 2.49602 12.095 2.34602 12.245C2.22602 12.365 2.16602 12.515 2.16602 12.695C2.16602 12.875 2.22602 13.04 2.34602 13.19ZM7.38602 2.93C7.74602 2.66 7.77602 2.345 7.47602 1.985C7.20602 1.625 6.89102 1.58 6.53102 1.85C6.41102 1.97 6.24602 2.12 6.03602 2.3C5.85602 2.45 5.52602 2.795 5.04602 3.335C4.59602 3.875 4.19102 4.46 3.83102 5.09C3.50102 5.69 3.18602 6.47 2.88602 7.43C2.58602 8.39 2.42102 9.395 2.39102 10.445C2.36102 10.625 2.40602 10.79 2.52602 10.94C2.67602 11.06 2.84102 11.12 3.02102 11.12C3.02102 11.12 3.03602 11.12 3.06602 11.12C3.24602 11.12 3.39602 11.06 3.51602 10.94C3.66602 10.82 3.74102 10.67 3.74102 10.49C3.77102 9.59 3.92102 8.72 4.19102 7.88C4.46102 7.01 4.74602 6.305 5.04602 5.765C5.37602 5.225 5.73602 4.715 6.12602 4.235C6.51602 3.755 6.80102 3.44 6.98102 3.29C7.16102 3.11 7.29602 2.99 7.38602 2.93ZM28.086 30.92C29.856 29.81 30.756 27.8 30.786 24.89C30.786 24.65 30.681 24.485 30.471 24.395C30.291 24.275 30.096 24.275 29.886 24.395C29.706 24.485 29.616 24.65 29.616 24.89C29.586 27.35 28.866 29.03 27.456 29.93C27.336 29.99 27.261 30.08 27.231 30.2C27.201 30.32 27.201 30.44 27.231 30.56C27.261 30.68 27.306 30.785 27.366 30.875C27.456 30.965 27.561 31.01 27.681 31.01C27.801 31.01 27.936 30.98 28.086 30.92Z" fill="#EB5858"/>
</svg>
